<svg xmlns="http://www.w3.org/2000/svg" viewBox="0 0 404 404" id="terminal"><path fill="#52c1ff" d="M388.796 0H15.204C6.807 0 0 6.807 0 15.204v78.194h404V15.204C404 6.807 397.193 0 388.796 0z"></path><path fill="#e3edf0" d="M0 93.398v295.398C0 397.193 6.807 404 15.204 404h373.591c8.397 0 15.204-6.807 15.204-15.204V93.398H0z"></path><path fill="#fff" d="M96.39 30.699h35.285v32H96.39zM161.551 30.699h35.286v32h-35.286zM31.229 30.699h35.285v32H31.229z"></path><path fill="#738394" d="M148.788 316.323h72.764v32h-72.764zM52.126 261.188v33.613l31.765 15.802-31.765 15.801v33.612l76.487-39.232v-20.362z"></path></svg>